<svg xmlns="http://www.w3.org/2000/svg" viewBox="0 0 64 64" fill="#fff" fill-rule="evenodd" stroke="none" stroke-linecap="round" stroke-linejoin="round"><path d="M28.903 36.322c-7.956 3.454-10.344 5.295-11.287 6.123-1.453 1.274-2.257 6.022-3.116 10.055h36c-.856-4.038-1.668-8.781-3.115-10.055-.943-.828-3.242-2.621-11.198-6.075z" fill="#2574a9"/><path d="M28.638 33.668c-1.214-.89-2.28-1.908-2.684-2.555-.189-.301-.602-1.484-.947-3.102-.442-.279-.855-.84-1.092-1.554-.389-1.169-.152-2.289.531-2.511l.027-.008c-.213-4.788 1.16-10.183 8.035-10.183 6.884 0 8.253 5.408 8.035 10.199.665.24.892 1.348.508 2.503-.227.681-.615 1.225-1.034 1.515-.347 1.636-.765 2.835-.955 3.137-.408.651-1.479 1.673-2.697 2.565v4.496c-2.126 2.57-5.603 2.487-7.727 0z" fill="#f6d1af"/><path d="M26.313 14.838c-2.232.716-4.015.871-4.548.2 0 0-1.915 3.977 1.668 6.057a7.3 7.3 0 0 0 .754.381c.006 2.045.338 4.133.607 5.931 0 .02.015.059.024.099a1.15 1.15 0 0 0 .087.14.29.29 0 0 0 .217-.024c.017-.011.027-.03.026-.05.022-.329 0-.98 0-.987-.044-.512-.156-1.006-.232-1.505.218-1.381.693-2.12 1.167-3.071 2.743.385 5.296-.798 6.185-1.771l1.471-1.532.878.352c.778.316.895-1.055 1.755-1.121.371-.028 1.127 1.204 1.436 1.169 3.062-.358 1.781 4.238 2.255 6.362l-.167 1.116v.987c-.001.02.009.039.026.05a.29.29 0 0 0 .213.026 1.15 1.15 0 0 0 .087-.14c.032-.132.049-.268.052-.404l.083-.586c.617-2.291 1.755-11.398-2.521-12.384-3.677-2.858-9.186-1.54-11.524.705z" fill="#343434"/><path d="M36.364 33.679v.42s-1.99 2.327-3.872 2.245-3.855-2.403-3.855-2.403l-.002-.275c1.341.983 2.863 1.811 3.871 1.811s2.517-.822 3.857-1.799z" fill="#000" fill-opacity=".2"/></svg>