<svg xmlns="http://www.w3.org/2000/svg" viewBox="0 0 64 64" fill="#fff" fill-rule="evenodd" stroke="none" stroke-linecap="round" stroke-linejoin="round"><path d="M29.845 13.815c.772-1.486 6.915-2.798 9.422 2.489s1.245 7.139 2.626 9.006-1.878 16.311-9.602 16.264c-8.256-.051-10.055-13.867-8.414-16.665s.209-11.094 5.967-11.094z" fill="#343434"/><path d="M35.902 38.414c-.07.115-6.946.229-7.023.344-2.159 3.228-6.825 3.821-10.538 4.691S14.506 49.225 14.5 52.5h36c0-3.275-.074-8.169-3.842-9.051s-8.707-1.662-10.757-5.035z" fill="#2574a9"/><path fill="#f6dbc2" d="M28.893 35.304c-1.266-1.071-2.552-2.576-3.535-4.393-.107.193-.25.339-.428.422-.727.34-1.739-.493-2.274-1.863s-.385-2.761.336-3.093c.25-.118.537-.095.826.044-.789-5.462 2.085-12.349 8.69-12.349s9.476 6.881 8.691 12.341c.283-.131.562-.151.807-.035.729.332.873 1.723.338 3.093s-1.547 2.202-2.274 1.863c-.174-.081-.315-.223-.42-.409a15.48 15.48 0 0 1-3.542 4.392v4.64c-2.163 3.973-5.407 3.873-7.214 0z"/><path d="M33.956 21.02c1.759 3.842 2.46 4.976 4.785 3.963s1.884 1.828 1.462 3.856c2.059-2.739 1.817-5.34 1.172-7.983-.702-2.898-4.244-7.307-7.566-7.227-1.805-.205-4.537.037-7.443 2.229-5.08 3.832-3.38 12.439-2.012 13.452-1.325-7.972 1.919-6.345 4.154-10.519.741-1.836 3.546-1.948 5.448 2.229z" fill="#343434"/><path fill="#000" d="M36.119 35.307l-.012.231s-2.329 2.395-3.64 2.395-3.574-2.368-3.574-2.368v-.258c1.361 1.148 2.697 1.797 3.615 1.797s2.245-.645 3.599-1.787z" fill-opacity=".2"/></svg>