<svg width="370" height="370" viewBox="0 0 370 370" fill="none" xmlns="http://www.w3.org/2000/svg">
<path d="M277.5 123.333H262.083V92.5C262.083 49.95 227.55 15.4167 185 15.4167C142.45 15.4167 107.917 49.95 107.917 92.5V123.333H92.5C75.5417 123.333 61.6667 137.208 61.6667 154.167V308.333C61.6667 325.292 75.5417 339.167 92.5 339.167H277.5C294.458 339.167 308.333 325.292 308.333 308.333V154.167C308.333 137.208 294.458 123.333 277.5 123.333ZM138.75 92.5C138.75 66.9083 159.408 46.25 185 46.25C210.592 46.25 231.25 66.9083 231.25 92.5V123.333H138.75V92.5ZM277.5 308.333H92.5V154.167H277.5V308.333ZM185 262.083C201.958 262.083 215.833 248.208 215.833 231.25C215.833 214.292 201.958 200.417 185 200.417C168.042 200.417 154.167 214.292 154.167 231.25C154.167 248.208 168.042 262.083 185 262.083Z" fill="black"/>
</svg>
