<svg width="370" height="370" viewBox="0 0 370 370" fill="none" xmlns="http://www.w3.org/2000/svg">
<path d="M262.083 53.9584C262.083 51.914 261.271 49.9533 259.826 48.5078C258.38 47.0622 256.419 46.25 254.375 46.25H215.833C196.426 45.2833 177.424 52.0373 162.981 65.0365C148.537 78.0356 139.826 96.2231 138.75 115.625V157.25H100.208C98.164 157.25 96.2033 158.062 94.7577 159.508C93.3121 160.953 92.5 162.914 92.5 164.958V205.042C92.5 207.086 93.3121 209.047 94.7577 210.492C96.2033 211.938 98.164 212.75 100.208 212.75H138.75V316.042C138.75 318.086 139.562 320.047 141.008 321.492C142.453 322.938 144.414 323.75 146.458 323.75H192.708C194.753 323.75 196.713 322.938 198.159 321.492C199.605 320.047 200.417 318.086 200.417 316.042V212.75H240.808C242.522 212.775 244.196 212.227 245.564 211.194C246.932 210.161 247.917 208.701 248.362 207.046L259.462 166.963C259.769 165.824 259.81 164.629 259.583 163.472C259.356 162.315 258.866 161.225 258.151 160.287C257.436 159.348 256.515 158.587 255.46 158.06C254.404 157.534 253.242 157.257 252.062 157.25H200.417V115.625C200.8 111.809 202.592 108.273 205.443 105.707C208.294 103.142 211.998 101.731 215.833 101.75H254.375C256.419 101.75 258.38 100.938 259.826 99.4923C261.271 98.0467 262.083 96.0861 262.083 94.0417V53.9584Z" fill="black"/>
</svg>
