<svg width="370" height="370" viewBox="0 0 370 370" fill="none" xmlns="http://www.w3.org/2000/svg">
<path d="M269.792 215.833C265.279 231.534 256.334 245.6 244.029 256.346C231.724 267.092 216.582 274.062 200.417 276.421C187.776 278.255 174.894 277.516 162.546 274.248C150.197 270.979 138.637 265.25 128.558 257.402C118.479 249.555 110.089 239.752 103.893 228.582C97.6968 217.412 93.8216 205.105 92.5001 192.4C91.4763 179.645 93.1101 166.817 97.298 154.725C101.486 142.634 108.137 131.543 116.831 122.154C125.524 112.765 136.072 105.282 147.805 100.178C159.539 95.0733 172.204 92.459 185 92.5C196.99 92.5169 208.868 94.8191 219.996 99.2834C221.748 100.07 223.731 100.174 225.556 99.5753C227.381 98.9765 228.917 97.7178 229.863 96.0459L252.063 55.1917C252.541 54.2507 252.828 53.2246 252.908 52.1723C252.989 51.12 252.86 50.0621 252.531 49.0595C252.202 48.0568 251.677 47.1291 250.988 46.3295C250.3 45.5299 249.46 44.8742 248.517 44.4C224.678 33.607 198.485 29.0595 172.403 31.1859C146.322 33.3123 121.211 42.0425 99.4353 56.5544C77.6598 71.0662 59.9365 90.882 47.9348 114.135C35.933 137.389 30.0478 163.315 30.8334 189.471C32.3526 228.319 48.3216 265.201 75.6123 292.891C102.903 320.581 139.549 337.084 178.371 339.167C219.039 340.97 258.77 326.616 288.894 299.236C319.018 271.855 337.09 233.672 339.167 193.017V162.183C339.127 160.151 338.303 158.214 336.866 156.776C335.428 155.339 333.491 154.515 331.459 154.475H192.708C190.664 154.475 188.703 155.287 187.258 156.733C185.812 158.178 185 160.139 185 162.183V208.433C185 210.478 185.812 212.438 187.258 213.884C188.703 215.33 190.664 216.142 192.708 216.142H269.792" fill="black"/>
</svg>
