<svg width="370" height="370" viewBox="0 0 370 370" fill="none" xmlns="http://www.w3.org/2000/svg">
<g clip-path="url(#clip0_24_208)">
<path d="M171.648 155.456C138.114 137.411 95.4751 141.421 65.726 168.514C27.9982 202.874 25.261 261.459 59.6207 299.186C93.9804 336.914 152.565 339.651 190.293 305.292C220.042 278.198 228.01 236.119 213.17 201.049L262.752 155.893L304.274 201.486L349.867 159.964L308.344 114.371L331.141 93.6099L289.618 48.0174L171.648 155.456ZM148.771 259.699C136.233 271.118 116.632 270.202 105.213 257.664C93.7945 245.126 94.7103 225.525 107.248 214.107C119.786 202.688 139.387 203.604 150.806 216.142C162.224 228.68 161.309 248.28 148.771 259.699Z" fill="black"/>
</g>
<defs>
<clipPath id="clip0_24_208">
<rect width="370" height="370" fill="white"/>
</clipPath>
</defs>
</svg>
