<svg width="370" height="370" viewBox="0 0 370 370" fill="none" xmlns="http://www.w3.org/2000/svg">
<path d="M316.35 234.487L288.6 206.583V137.825C288.969 112.292 280.088 87.4882 263.596 67.9927C247.104 48.4972 224.116 35.6269 198.875 31.7583C184.226 29.8292 169.335 31.0463 155.193 35.3285C141.052 39.6106 127.987 46.8593 116.869 56.5909C105.752 66.3225 96.8374 78.3132 90.721 91.763C84.6046 105.213 81.4269 119.812 81.3999 134.587V206.583L53.6499 234.487C50.1643 238.031 47.8006 242.524 46.8543 247.404C45.908 252.283 46.421 257.334 48.3293 261.924C50.2376 266.513 53.4565 270.439 57.5835 273.209C61.7106 275.98 66.5627 277.472 71.5333 277.5H123.333V282.742C124.053 298.393 130.948 313.12 142.507 323.696C154.066 334.273 169.347 339.836 185 339.167C200.653 339.836 215.933 334.273 227.492 323.696C239.051 313.12 245.946 298.393 246.667 282.742V277.5H298.467C303.437 277.472 308.289 275.98 312.416 273.209C316.543 270.439 319.762 266.513 321.671 261.924C323.579 257.334 324.092 252.283 323.146 247.404C322.199 242.524 319.836 238.031 316.35 234.487V234.487ZM215.833 282.742C214.978 290.157 211.295 296.957 205.551 301.724C199.808 306.491 192.446 308.859 185 308.333C177.554 308.859 170.192 306.491 164.448 301.724C158.705 296.957 155.022 290.157 154.167 282.742V277.5H215.833V282.742ZM84.9458 246.667L103.137 228.475C106.023 225.607 108.312 222.195 109.873 218.438C111.434 214.681 112.236 210.652 112.233 206.583V134.587C112.242 124.187 114.475 113.909 118.782 104.443C123.09 94.9774 129.372 86.5423 137.208 79.7042C144.938 72.7001 154.098 67.4595 164.054 64.345C174.01 61.2306 184.523 60.3167 194.867 61.6667C212.696 64.5615 228.879 73.7997 240.437 87.6804C251.994 101.561 258.149 119.15 257.767 137.208V206.583C257.743 210.641 258.521 214.664 260.055 218.42C261.59 222.177 263.851 225.594 266.708 228.475L285.054 246.667H84.9458Z" fill="black"/>
</svg>
