<svg width="370" height="370" viewBox="0 0 370 370" fill="none" xmlns="http://www.w3.org/2000/svg">
<path d="M215.833 215.833H154.167V323.75H215.833V215.833Z" fill="black"/>
<path d="M314.808 156.942L195.946 35.4583C194.513 34.0133 192.808 32.8664 190.929 32.0838C189.05 31.3011 187.035 30.8981 185 30.8981C182.965 30.8981 180.95 31.3011 179.071 32.0838C177.192 32.8664 175.487 34.0133 174.054 35.4583L55.1917 157.096C52.3155 159.995 50.044 163.437 48.509 167.222C46.974 171.006 46.2061 175.058 46.25 179.142V308.333C46.2381 316.225 49.2528 323.822 54.6733 329.558C60.0938 335.294 67.5075 338.733 75.3875 339.167H123.333V200.417C123.333 196.328 124.958 192.407 127.849 189.515C130.74 186.624 134.661 185 138.75 185H231.25C235.339 185 239.26 186.624 242.151 189.515C245.042 192.407 246.667 196.328 246.667 200.417V339.167H294.613C302.493 338.733 309.906 335.294 315.327 329.558C320.747 323.822 323.762 316.225 323.75 308.333V179.142C323.762 170.862 320.556 162.902 314.808 156.942V156.942Z" fill="black"/>
</svg>
