<svg width="370" height="370" viewBox="0 0 370 370" fill="none" xmlns="http://www.w3.org/2000/svg">
<path d="M314.808 156.942L195.946 35.4583C194.513 34.0133 192.808 32.8664 190.929 32.0838C189.05 31.3011 187.035 30.8981 185 30.8981C182.965 30.8981 180.95 31.3011 179.071 32.0838C177.192 32.8664 175.487 34.0133 174.054 35.4583L55.1917 157.096C52.3155 159.995 50.044 163.437 48.509 167.222C46.974 171.006 46.2061 175.058 46.25 179.142V308.333C46.2381 316.225 49.2528 323.821 54.6733 329.557C60.0938 335.293 67.5074 338.733 75.3875 339.167H294.612C302.493 338.733 309.906 335.293 315.327 329.557C320.747 323.821 323.762 316.225 323.75 308.333V179.142C323.762 170.862 320.556 162.901 314.808 156.942V156.942ZM154.167 308.333V215.833H215.833V308.333H154.167ZM292.917 308.333H246.667V200.417C246.667 196.328 245.042 192.407 242.151 189.515C239.26 186.624 235.339 185 231.25 185H138.75C134.661 185 130.74 186.624 127.849 189.515C124.958 192.407 123.333 196.328 123.333 200.417V308.333H77.0833V178.525L185 68.2958L292.917 179.142V308.333Z" fill="black"/>
</svg>
