<svg width="370" height="370" viewBox="0 0 370 370" fill="none" xmlns="http://www.w3.org/2000/svg">
<path d="M185 200.417C193.514 200.417 200.417 193.514 200.417 185C200.417 176.486 193.514 169.583 185 169.583C176.486 169.583 169.583 176.486 169.583 185C169.583 193.514 176.486 200.417 185 200.417Z" fill="black"/>
<path d="M246.667 200.417C255.181 200.417 262.083 193.514 262.083 185C262.083 176.486 255.181 169.583 246.667 169.583C238.152 169.583 231.25 176.486 231.25 185C231.25 193.514 238.152 200.417 246.667 200.417Z" fill="black"/>
<path d="M123.333 200.417C131.848 200.417 138.75 193.514 138.75 185C138.75 176.486 131.848 169.583 123.333 169.583C114.819 169.583 107.917 176.486 107.917 185C107.917 193.514 114.819 200.417 123.333 200.417Z" fill="black"/>
<path d="M293.996 76.0042C268.7 50.5435 235.314 34.7062 199.594 31.2225C163.873 27.7387 128.056 36.827 98.318 56.9203C68.5798 77.0137 46.784 106.853 36.688 141.294C26.5921 175.735 28.8288 212.619 43.0125 245.587C44.4908 248.652 44.9759 252.101 44.4 255.454L30.8333 320.667C30.3106 323.167 30.4174 325.758 31.1439 328.207C31.8705 330.655 33.1941 332.885 34.9958 334.696C36.4728 336.162 38.2314 337.314 40.1656 338.082C42.0997 338.851 44.1695 339.22 46.25 339.167H49.3333L115.317 325.908C118.67 325.505 122.071 325.983 125.183 327.296C158.152 341.48 195.036 343.716 229.477 333.62C263.918 323.524 293.757 301.728 313.85 271.99C333.944 242.252 343.032 206.435 339.548 170.715C336.065 134.994 320.227 101.608 294.767 76.3125L293.996 76.0042ZM306.792 204.887C303.777 223.295 296.627 240.778 285.88 256.023C275.132 271.268 261.067 283.876 244.742 292.899C228.417 301.922 210.259 307.125 191.633 308.116C173.007 309.107 154.398 305.861 137.208 298.621C131.112 296.028 124.563 294.665 117.937 294.612C115.043 294.633 112.156 294.891 109.304 295.383L65.8292 304.171L74.6167 260.696C76.3668 251.28 75.2386 241.556 71.3792 232.792C64.1394 215.602 60.8928 196.993 61.8839 178.367C62.875 159.741 68.0779 141.583 77.1009 125.258C86.124 108.933 98.7323 94.868 113.977 84.1203C129.221 73.3725 146.705 66.2225 165.112 63.2083C184.434 60.0374 204.232 61.5121 222.871 67.5105C241.509 73.5089 258.451 83.8587 272.296 97.7037C286.141 111.549 296.491 128.491 302.489 147.129C308.488 165.768 309.963 185.566 306.792 204.887V204.887Z" fill="black"/>
</svg>
