<svg width="370" height="370" viewBox="0 0 370 370" fill="none" xmlns="http://www.w3.org/2000/svg">
<path d="M248.594 104.062L264.55 105.246L264.55 105.244L248.594 104.062ZM121.406 104.062L105.448 105.223L105.449 105.224L121.406 104.062ZM46.5102 319.848L62.256 322.688L62.2562 322.687L46.5102 319.848ZM323.497 319.848L339.243 317.007L339.243 317.006L323.497 319.848ZM232.638 102.879C230.249 135.099 206.237 157.438 185 157.438V189.438C227.357 189.438 261.273 149.439 264.55 105.246L232.638 102.879ZM185 157.438C163.747 157.438 139.708 135.09 137.364 102.901L105.449 105.224C108.669 149.463 142.66 189.438 185 189.438V157.438ZM137.364 102.902C135.144 72.3762 156.042 50.6875 185 50.6875V18.6875C137.357 18.6875 101.887 56.2566 105.448 105.223L137.364 102.902ZM185 50.6875C213.857 50.6875 234.851 72.9924 232.638 102.881L264.55 105.244C268.117 57.0857 232.744 18.6875 185 18.6875V50.6875ZM185 203.688C117.586 203.688 44.445 241.153 30.7642 317.008L62.2562 322.687C72.1918 267.597 126.672 235.688 185 235.688V203.688ZM30.7644 317.007C29.3989 324.576 30.6991 332.816 35.3265 339.576C40.1999 346.697 48.2617 351.312 57.8125 351.312V319.312C58.2527 319.312 59.0345 319.43 59.9079 319.897C60.759 320.352 61.3626 320.96 61.7335 321.502C62.4189 322.504 62.1979 323.011 62.256 322.688L30.7644 317.007ZM57.8125 351.312H312.188V319.312H57.8125V351.312ZM312.188 351.312C321.737 351.312 329.801 346.701 334.678 339.579C339.308 332.817 340.608 324.576 339.243 317.007L307.751 322.688C307.809 323.011 307.588 322.502 308.275 321.5C308.646 320.957 309.25 320.35 310.1 319.895C310.972 319.429 311.751 319.312 312.188 319.312V351.312ZM339.243 317.006C325.554 241.153 252.415 203.688 185 203.688V235.688C243.328 235.688 297.809 267.597 307.751 322.689L339.243 317.006Z" fill="black"/>
</svg>
