<svg width="370" height="370" viewBox="0 0 370 370" fill="none" xmlns="http://www.w3.org/2000/svg">
<path d="M174 188C188.438 188 202.552 183.073 214.557 173.843C226.561 164.613 235.918 151.494 241.443 136.145C246.968 120.796 248.414 103.907 245.597 87.6124C242.781 71.318 235.828 56.3507 225.619 44.6031C215.41 32.8554 202.402 24.8552 188.242 21.6141C174.081 18.3729 159.403 20.0364 146.064 26.3942C132.725 32.7519 121.324 43.5184 113.303 57.3321C105.281 71.1458 101 87.3864 101 104C101 126.278 108.691 147.644 122.381 163.397C136.071 179.15 154.639 188 174 188Z" fill="black"/>
<path d="M320.429 350C326.415 350 332.156 348.025 336.389 344.508C340.622 340.992 343 336.223 343 331.25C343 296.44 326.354 263.056 296.723 238.442C267.092 213.828 226.904 200 185 200C143.096 200 102.908 213.828 73.2771 238.442C43.6464 263.056 27 296.44 27 331.25C27 336.223 29.3781 340.992 33.611 344.508C37.844 348.025 43.5851 350 49.5714 350H320.429Z" fill="black"/>
</svg>
